<svg width="32" height="33" viewBox="0 0 32 33" fill="none" xmlns="http://www.w3.org/2000/svg">
<g filter="url(#filter0_d_260_62)">
<g filter="url(#filter1_d_260_62)">
<path d="M16 22.193C14.6333 22.193 13.3417 21.9282 12.125 21.3986C10.9083 20.869 9.84583 20.146 8.9375 19.2297C8.02917 18.3134 7.3125 17.2416 6.7875 16.0143C6.2625 14.7869 6 13.484 6 12.1053C6 10.7098 6.2625 9.40263 6.7875 8.1837C7.3125 6.96476 8.02917 5.89715 8.9375 4.98085C9.84583 4.06454 10.9083 3.34159 12.125 2.81199C13.3417 2.28238 14.6333 2.01758 16 2.01758C17.3833 2.01758 18.6792 2.28238 19.8875 2.81199C21.0958 3.34159 22.1542 4.06454 23.0625 4.98085C23.9708 5.89715 24.6875 6.96476 25.2125 8.1837C25.7375 9.40263 26 10.7098 26 12.1053C26 13.484 25.7375 14.7869 25.2125 16.0143C24.6875 17.2416 23.9708 18.3134 23.0625 19.2297C22.1542 20.146 21.0958 20.869 19.8875 21.3986C18.6792 21.9282 17.3833 22.193 16 22.193ZM16 20.125C16.4333 19.5198 16.8083 18.8893 17.125 18.2336C17.4417 17.5779 17.7 16.8802 17.9 16.1404H14.1C14.3 16.8802 14.5583 17.5779 14.875 18.2336C15.1917 18.8893 15.5667 19.5198 16 20.125ZM13.4 19.7215C13.1 19.1667 12.8375 18.5909 12.6125 17.994C12.3875 17.3971 12.2 16.7793 12.05 16.1404H9.1C9.58333 16.981 10.1875 17.7124 10.9125 18.3345C11.6375 18.9565 12.4667 19.4189 13.4 19.7215ZM18.6 19.7215C19.5333 19.4189 20.3625 18.9565 21.0875 18.3345C21.8125 17.7124 22.4167 16.981 22.9 16.1404H19.95C19.8 16.7793 19.6125 17.3971 19.3875 17.994C19.1625 18.5909 18.9 19.1667 18.6 19.7215ZM8.25 14.1228H11.65C11.6 13.7866 11.5625 13.4545 11.5375 13.1267C11.5125 12.7988 11.5 12.4584 11.5 12.1053C11.5 11.7522 11.5125 11.4118 11.5375 11.0839C11.5625 10.7561 11.6 10.424 11.65 10.0878H8.25C8.16667 10.424 8.10417 10.7561 8.0625 11.0839C8.02083 11.4118 8 11.7522 8 12.1053C8 12.4584 8.02083 12.7988 8.0625 13.1267C8.10417 13.4545 8.16667 13.7866 8.25 14.1228ZM13.65 14.1228H18.35C18.4 13.7866 18.4375 13.4545 18.4625 13.1267C18.4875 12.7988 18.5 12.4584 18.5 12.1053C18.5 11.7522 18.4875 11.4118 18.4625 11.0839C18.4375 10.7561 18.4 10.424 18.35 10.0878H13.65C13.6 10.424 13.5625 10.7561 13.5375 11.0839C13.5125 11.4118 13.5 11.7522 13.5 12.1053C13.5 12.4584 13.5125 12.7988 13.5375 13.1267C13.5625 13.4545 13.6 13.7866 13.65 14.1228ZM20.35 14.1228H23.75C23.8333 13.7866 23.8958 13.4545 23.9375 13.1267C23.9792 12.7988 24 12.4584 24 12.1053C24 11.7522 23.9792 11.4118 23.9375 11.0839C23.8958 10.7561 23.8333 10.424 23.75 10.0878H20.35C20.4 10.424 20.4375 10.7561 20.4625 11.0839C20.4875 11.4118 20.5 11.7522 20.5 12.1053C20.5 12.4584 20.4875 12.7988 20.4625 13.1267C20.4375 13.4545 20.4 13.7866 20.35 14.1228ZM19.95 8.07021H22.9C22.4167 7.22957 21.8125 6.49821 21.0875 5.87613C20.3625 5.25405 19.5333 4.7917 18.6 4.48907C18.9 5.04389 19.1625 5.61973 19.3875 6.21659C19.6125 6.81345 19.8 7.43132 19.95 8.07021ZM14.1 8.07021H17.9C17.7 7.33044 17.4417 6.63271 17.125 5.97701C16.8083 5.32131 16.4333 4.69082 16 4.08556C15.5667 4.69082 15.1917 5.32131 14.875 5.97701C14.5583 6.63271 14.3 7.33044 14.1 8.07021ZM9.1 8.07021H12.05C12.2 7.43132 12.3875 6.81345 12.6125 6.21659C12.8375 5.61973 13.1 5.04389 13.4 4.48907C12.4667 4.7917 11.6375 5.25405 10.9125 5.87613C10.1875 6.49821 9.58333 7.22957 9.1 8.07021Z" fill="#2A8FEF"/>
</g>
</g>
<defs>
<filter id="filter0_d_260_62" x="0" y="0" width="32" height="32.2106" filterUnits="userSpaceOnUse" color-interpolation-filters="sRGB">
<feFlood flood-opacity="0" result="BackgroundImageFix"/>
<feColorMatrix in="SourceAlpha" type="matrix" values="0 0 0 0 0 0 0 0 0 0 0 0 0 0 0 0 0 0 127 0" result="hardAlpha"/>
<feOffset dy="4"/>
<feGaussianBlur stdDeviation="2"/>
<feComposite in2="hardAlpha" operator="out"/>
<feColorMatrix type="matrix" values="0 0 0 0 0 0 0 0 0 0 0 0 0 0 0 0 0 0 0.25 0"/>
<feBlend mode="normal" in2="BackgroundImageFix" result="effect1_dropShadow_260_62"/>
<feBlend mode="normal" in="SourceGraphic" in2="effect1_dropShadow_260_62" result="shape"/>
</filter>
<filter id="filter1_d_260_62" x="0" y="0" width="32" height="32.2106" filterUnits="userSpaceOnUse" color-interpolation-filters="sRGB">
<feFlood flood-opacity="0" result="BackgroundImageFix"/>
<feColorMatrix in="SourceAlpha" type="matrix" values="0 0 0 0 0 0 0 0 0 0 0 0 0 0 0 0 0 0 127 0" result="hardAlpha"/>
<feOffset dy="4"/>
<feGaussianBlur stdDeviation="2"/>
<feComposite in2="hardAlpha" operator="out"/>
<feColorMatrix type="matrix" values="0 0 0 0 0 0 0 0 0 0 0 0 0 0 0 0 0 0 0.25 0"/>
<feBlend mode="normal" in2="BackgroundImageFix" result="effect1_dropShadow_260_62"/>
<feBlend mode="normal" in="SourceGraphic" in2="effect1_dropShadow_260_62" result="shape"/>
</filter>
</defs>
</svg>
