<svg width="186" height="48" viewBox="0 0 186 48" fill="none" xmlns="http://www.w3.org/2000/svg">
<g filter="url(#filter0_d_103_32)">
<path d="M39.144 39H31.416L30.84 25.992C30.68 22.888 30.6 20.12 30.6 17.688C30.6 15.832 30.648 14.072 30.744 12.408L25.608 35.496H18.168L12.696 12.408C12.888 15.192 12.984 17.816 12.984 20.28C12.984 22.136 12.936 24.072 12.84 26.088L12.264 39H4.584L7.08 5.736H17.016L22.008 28.296L26.664 5.736H36.648L39.144 39ZM63.9664 31.608C63.9664 32.568 64.0944 33.272 64.3504 33.72C64.6384 34.168 65.0864 34.504 65.6944 34.728L64.1104 39.672C62.5424 39.544 61.2624 39.208 60.2704 38.664C59.2784 38.088 58.5104 37.192 57.9664 35.976C56.3024 38.536 53.7424 39.816 50.2864 39.816C47.7584 39.816 45.7424 39.08 44.2384 37.608C42.7344 36.136 41.9824 34.216 41.9824 31.848C41.9824 29.064 43.0064 26.936 45.0544 25.464C47.1024 23.992 50.0624 23.256 53.9344 23.256H56.5264V22.152C56.5264 20.648 56.2064 19.624 55.5664 19.08C54.9264 18.504 53.8064 18.216 52.2064 18.216C51.3744 18.216 50.3664 18.344 49.1824 18.6C47.9984 18.824 46.7824 19.144 45.5344 19.56L43.8064 14.568C45.4064 13.96 47.0384 13.496 48.7024 13.176C50.3984 12.856 51.9664 12.696 53.4064 12.696C57.0544 12.696 59.7264 13.448 61.4224 14.952C63.1184 16.456 63.9664 18.712 63.9664 21.72V31.608ZM52.4944 34.392C54.2224 34.392 55.5664 33.576 56.5264 31.944V27.432H54.6544C52.9264 27.432 51.6304 27.736 50.7664 28.344C49.9344 28.952 49.5184 29.896 49.5184 31.176C49.5184 32.2 49.7744 33 50.2864 33.576C50.8304 34.12 51.5664 34.392 52.4944 34.392ZM83.8313 12.792C84.7593 12.792 85.6073 12.904 86.3753 13.128L85.1753 20.472C84.2153 20.248 83.4473 20.136 82.8713 20.136C81.3673 20.136 80.2153 20.664 79.4153 21.72C78.6473 22.744 78.0393 24.296 77.5913 26.376V39H70.0073V13.512H76.6313L77.2553 18.456C77.8313 16.696 78.6953 15.32 79.8473 14.328C81.0313 13.304 82.3593 12.792 83.8313 12.792ZM96.8569 13.512V39H89.2729V13.512H96.8569ZM93.0169 0.0719976C94.3289 0.0719976 95.4009 0.487998 96.2329 1.32C97.0969 2.12 97.5289 3.144 97.5289 4.392C97.5289 5.64 97.0969 6.68 96.2329 7.512C95.4009 8.312 94.3289 8.712 93.0169 8.712C91.7049 8.712 90.6329 8.312 89.8009 7.512C88.9689 6.68 88.5529 5.64 88.5529 4.392C88.5529 3.144 88.9689 2.12 89.8009 1.32C90.6329 0.487998 91.7049 0.0719976 93.0169 0.0719976ZM117.748 12.696C119.956 12.696 121.684 13.368 122.932 14.712C124.18 16.056 124.804 17.944 124.804 20.376V39H117.22V21.672C117.22 20.392 117.012 19.512 116.596 19.032C116.212 18.52 115.62 18.264 114.82 18.264C113.284 18.264 111.812 19.368 110.404 21.576V39H102.82V13.512H109.444L109.972 16.536C111.06 15.256 112.228 14.296 113.476 13.656C114.756 13.016 116.18 12.696 117.748 12.696ZM145.451 12.696C147.659 12.696 149.387 13.368 150.635 14.712C151.883 16.056 152.507 17.944 152.507 20.376V39H144.923V21.672C144.923 20.392 144.715 19.512 144.299 19.032C143.883 18.52 143.291 18.264 142.523 18.264C140.987 18.264 139.515 19.352 138.107 21.528V39H130.523V3.384L138.107 2.616V16.248C139.163 15.064 140.283 14.184 141.467 13.608C142.651 13 143.979 12.696 145.451 12.696ZM169.266 12.696C173.17 12.696 176.226 13.896 178.434 16.296C180.642 18.664 181.746 21.992 181.746 26.28C181.746 29 181.234 31.384 180.21 33.432C179.218 35.448 177.778 37.016 175.89 38.136C174.034 39.256 171.826 39.816 169.266 39.816C165.394 39.816 162.338 38.632 160.098 36.264C157.89 33.864 156.786 30.52 156.786 26.232C156.786 23.512 157.282 21.144 158.274 19.128C159.298 17.08 160.738 15.496 162.594 14.376C164.482 13.256 166.706 12.696 169.266 12.696ZM169.266 18.264C167.73 18.264 166.578 18.92 165.81 20.232C165.042 21.512 164.658 23.512 164.658 26.232C164.658 29.016 165.026 31.048 165.762 32.328C166.53 33.608 167.698 34.248 169.266 34.248C170.802 34.248 171.954 33.608 172.722 32.328C173.49 31.016 173.874 29 173.874 26.28C173.874 23.496 173.49 21.464 172.722 20.184C171.986 18.904 170.834 18.264 169.266 18.264Z" fill="#3D3D3D"/>
</g>
<defs>
<filter id="filter0_d_103_32" x="0.583984" y="0.0720215" width="185.162" height="47.744" filterUnits="userSpaceOnUse" color-interpolation-filters="sRGB">
<feFlood flood-opacity="0" result="BackgroundImageFix"/>
<feColorMatrix in="SourceAlpha" type="matrix" values="0 0 0 0 0 0 0 0 0 0 0 0 0 0 0 0 0 0 127 0" result="hardAlpha"/>
<feOffset dy="4"/>
<feGaussianBlur stdDeviation="2"/>
<feComposite in2="hardAlpha" operator="out"/>
<feColorMatrix type="matrix" values="0 0 0 0 0 0 0 0 0 0 0 0 0 0 0 0 0 0 0.25 0"/>
<feBlend mode="normal" in2="BackgroundImageFix" result="effect1_dropShadow_103_32"/>
<feBlend mode="normal" in="SourceGraphic" in2="effect1_dropShadow_103_32" result="shape"/>
</filter>
</defs>
</svg>
