<svg width="43" height="44" viewBox="0 0 43 44" fill="none" xmlns="http://www.w3.org/2000/svg">
<g clip-path="url(#clip0_269_22)" filter="url(#filter0_d_269_22)">
<path d="M10.3635 15.4601C12.9647 14.3492 15.6337 14.0685 18.3705 14.618C21.1072 15.1674 23.4567 16.4641 25.4189 18.5081C26.7318 19.8757 27.7056 21.4317 28.3405 23.1759C28.9753 24.9202 29.244 26.7343 29.1466 28.6183L32.2576 25.6318L33.9889 27.4353L27.6767 33.4949L21.6171 27.1827L23.4206 25.4514L26.6235 28.7879C26.7444 27.199 26.5473 25.6626 26.0325 24.1786C25.5176 22.6947 24.7119 21.3816 23.6154 20.2394C22.1438 18.7064 20.3854 17.687 18.3403 17.1811C16.2951 16.6752 14.2638 16.7553 12.2463 17.4214L10.3635 15.4601Z" fill="#2A8FEF"/>
</g>
<defs>
<filter id="filter0_d_269_22" x="-3.48352" y="0.671753" width="50.4176" height="50.4175" filterUnits="userSpaceOnUse" color-interpolation-filters="sRGB">
<feFlood flood-opacity="0" result="BackgroundImageFix"/>
<feColorMatrix in="SourceAlpha" type="matrix" values="0 0 0 0 0 0 0 0 0 0 0 0 0 0 0 0 0 0 127 0" result="hardAlpha"/>
<feOffset dy="4"/>
<feGaussianBlur stdDeviation="2"/>
<feComposite in2="hardAlpha" operator="out"/>
<feColorMatrix type="matrix" values="0 0 0 0 0 0 0 0 0 0 0 0 0 0 0 0 0 0 0.25 0"/>
<feBlend mode="normal" in2="BackgroundImageFix" result="effect1_dropShadow_269_22"/>
<feBlend mode="normal" in="SourceGraphic" in2="effect1_dropShadow_269_22" result="shape"/>
</filter>
<clipPath id="clip0_269_22">
<rect width="30" height="30" fill="white" transform="translate(42.9341 22.3135) rotate(136.17)"/>
</clipPath>
</defs>
</svg>
